<?xml version="1.0" encoding="UTF-8"?>
<!DOCTYPE svg PUBLIC "-//W3C//DTD SVG 1.1//EN" "http://www.w3.org/Graphics/SVG/1.1/DTD/svg11.dtd">
<svg xmlns="http://www.w3.org/2000/svg" version="1.1" width="300px" height="54px" style="shape-rendering:geometricPrecision; text-rendering:geometricPrecision; image-rendering:optimizeQuality; fill-rule:evenodd; clip-rule:evenodd" xmlns:xlink="http://www.w3.org/1999/xlink">
<g><path style="opacity:1" fill="#faf9f9" d="M 54.5,-0.5 C 136.167,-0.5 217.833,-0.5 299.5,-0.5C 299.5,17.5 299.5,35.5 299.5,53.5C 214.167,53.5 128.833,53.5 43.5,53.5C 44.4577,52.0384 45.6244,50.7051 47,49.5C 47.6667,42.5 47.6667,35.5 47,28.5C 43.5892,17.0115 39.5892,16.6782 35,27.5C 34.3333,35.1667 34.3333,42.8333 35,50.5C 36.045,51.3734 36.8783,52.3734 37.5,53.5C 24.8333,53.5 12.1667,53.5 -0.5,53.5C -0.5,49.5 -0.5,45.5 -0.5,41.5C 0.686482,44.3397 2.68648,46.5064 5.5,48C 13.4073,48.1049 21.074,48.7716 28.5,50C 29.3246,35.5746 29.8246,21.0746 30,6.5C 30.5,6 31,5.5 31.5,5C 38.1583,4.50042 44.825,4.33375 51.5,4.5C 51.3335,16.5046 51.5001,28.5046 52,40.5C 53,41.8333 54,41.8333 55,40.5C 55.814,26.7584 55.6473,13.0917 54.5,-0.5 Z"/></g>
<g><path style="opacity:1" fill="#060606" d="M 242.5,5.5 C 242.169,13.5277 242.502,21.5277 243.5,29.5C 244.107,29.3764 244.44,29.0431 244.5,28.5C 247.529,25.141 250.529,21.8076 253.5,18.5C 256.385,18.1936 259.052,18.5269 261.5,19.5C 257.937,22.8956 254.937,26.7289 252.5,31C 255.802,36.4423 259.469,41.609 263.5,46.5C 261.052,47.4731 258.385,47.8064 255.5,47.5C 252.732,44.1584 250.066,40.6584 247.5,37C 245.934,36.7003 244.601,37.2003 243.5,38.5C 242.523,41.2869 242.19,44.2869 242.5,47.5C 240.167,47.5 237.833,47.5 235.5,47.5C 235.5,33.5 235.5,19.5 235.5,5.5C 237.833,5.5 240.167,5.5 242.5,5.5 Z"/></g>
<g><path style="opacity:1" fill="#585858" d="M 242.5,5.5 C 243.167,13.1667 243.833,20.8333 244.5,28.5C 244.44,29.0431 244.107,29.3764 243.5,29.5C 242.502,21.5277 242.169,13.5277 242.5,5.5 Z"/></g>
<g><path style="opacity:1" fill="#070707" d="M 84.5,7.5 C 86.8333,7.5 89.1667,7.5 91.5,7.5C 91.9573,19.2682 91.4573,30.9349 90,42.5C 85.2823,47.7386 79.449,49.5719 72.5,48C 67.651,45.6561 64.9844,41.8228 64.5,36.5C 67.1667,36.5 69.8333,36.5 72.5,36.5C 72.8898,41.534 75.5564,43.3673 80.5,42C 82.0488,40.786 83.2155,39.286 84,37.5C 84.4998,27.5056 84.6665,17.5056 84.5,7.5 Z"/></g>
<g><path style="opacity:1" fill="#0a0a0a" d="M 112.5,33.5 C 110.735,32.5386 108.735,32.2053 106.5,32.5C 106.5,37.5 106.5,42.5 106.5,47.5C 104.167,47.5 101.833,47.5 99.5,47.5C 99.5,34.1667 99.5,20.8333 99.5,7.5C 107.382,6.86095 115.049,7.69428 122.5,10C 129.543,17.8291 128.877,24.9958 120.5,31.5C 123.039,36.7451 125.706,41.9117 128.5,47C 125.446,47.8214 122.446,47.6548 119.5,46.5C 117.392,41.9455 115.059,37.6122 112.5,33.5 Z"/></g>
<g><path style="opacity:1" fill="#0a0a0a" d="M 133.5,7.5 C 140.589,7.11564 147.589,7.61564 154.5,9C 162.919,14.1761 163.586,20.1761 156.5,27C 161.745,31.5168 162.912,37.0168 160,43.5C 158.2,45.317 156.034,46.4837 153.5,47C 146.842,47.4996 140.175,47.6663 133.5,47.5C 133.5,34.1667 133.5,20.8333 133.5,7.5 Z"/></g>
<g><path style="opacity:1" fill="#f8f8f8" d="M 114.5,14.5 C 119.078,15.793 120.578,18.793 119,23.5C 118.167,24.3333 117.333,25.1667 116.5,26C 113.518,26.498 110.518,26.6646 107.5,26.5C 107.5,22.5 107.5,18.5 107.5,14.5C 109.833,14.5 112.167,14.5 114.5,14.5 Z"/></g>
<g><path style="opacity:1" fill="#f7f7f7" d="M 149.5,14.5 C 154.42,16.9739 154.753,20.1406 150.5,24C 147.518,24.498 144.518,24.6646 141.5,24.5C 141.5,21.1667 141.5,17.8333 141.5,14.5C 144.167,14.5 146.833,14.5 149.5,14.5 Z"/></g>
<g><path style="opacity:1" fill="#8b8b8b" d="M 114.5,14.5 C 112.167,14.5 109.833,14.5 107.5,14.5C 107.5,18.5 107.5,22.5 107.5,26.5C 106.515,22.3656 106.182,18.0323 106.5,13.5C 109.385,13.1936 112.052,13.5269 114.5,14.5 Z"/></g>
<g><path style="opacity:1" fill="#8b8b8b" d="M 149.5,14.5 C 146.833,14.5 144.167,14.5 141.5,14.5C 141.5,17.8333 141.5,21.1667 141.5,24.5C 140.518,21.0381 140.185,17.3714 140.5,13.5C 143.713,13.19 146.713,13.5233 149.5,14.5 Z"/></g>
<g><path style="opacity:1" fill="#888888" d="M 253.5,18.5 C 256.355,17.1968 259.355,17.1968 262.5,18.5C 262.376,19.1067 262.043,19.44 261.5,19.5C 259.052,18.5269 256.385,18.1936 253.5,18.5 Z"/></g>
<g><path style="opacity:1" fill="#0d0d0d" d="M 175.5,17.5 C 189.988,17.1555 196.155,24.1555 194,38.5C 190.05,48.0537 183.217,50.887 173.5,47C 166.907,41.7311 164.741,34.8978 167,26.5C 169.025,22.6443 171.858,19.6443 175.5,17.5 Z"/></g>
<g><path style="opacity:1" fill="#0d0d0d" d="M 209.5,17.5 C 223.988,17.1555 230.155,24.1555 228,38.5C 224.05,48.0537 217.217,50.887 207.5,47C 200.907,41.7311 198.741,34.8978 201,26.5C 203.025,22.6443 205.858,19.6443 209.5,17.5 Z"/></g>
<g><path style="opacity:1" fill="#111111" d="M 295.5,24.5 C 293.721,26.3435 291.388,27.0102 288.5,26.5C 287.308,24.0777 285.308,23.0777 282.5,23.5C 277.84,23.03 276.506,24.8633 278.5,29C 282.465,30.1265 286.465,31.1265 290.5,32C 298.752,38.1303 298.085,43.4636 288.5,48C 281.05,50.0531 274.884,48.2197 270,42.5C 269.51,41.2068 269.343,39.8734 269.5,38.5C 273.267,37.9262 276.267,39.0929 278.5,42C 281.5,42.6667 284.5,42.6667 287.5,42C 289.013,39.5459 288.346,37.8793 285.5,37C 279.333,36.4994 274.166,33.9994 270,29.5C 269.189,23.6231 271.689,19.7898 277.5,18C 282.734,17.0229 287.734,17.6896 292.5,20C 293.883,21.2708 294.883,22.7708 295.5,24.5 Z"/></g>
<g><path style="opacity:1" fill="#f4f4f4" d="M 178.5,23.5 C 181.961,23.1459 184.461,24.4792 186,27.5C 186.667,31.1667 186.667,34.8333 186,38.5C 184.309,42.2127 181.475,43.3794 177.5,42C 176.299,41.0975 175.465,39.9308 175,38.5C 174.333,34.8333 174.333,31.1667 175,27.5C 175.69,25.6498 176.856,24.3164 178.5,23.5 Z"/></g>
<g><path style="opacity:1" fill="#f4f4f4" d="M 212.5,23.5 C 215.961,23.1459 218.461,24.4792 220,27.5C 220.667,31.1667 220.667,34.8333 220,38.5C 218.309,42.2127 215.475,43.3794 211.5,42C 210.299,41.0975 209.465,39.9308 209,38.5C 208.333,34.8333 208.333,31.1667 209,27.5C 209.69,25.6498 210.856,24.3164 212.5,23.5 Z"/></g>
<g><path style="opacity:1" fill="#636363" d="M 295.5,24.5 C 296.404,25.209 296.737,26.209 296.5,27.5C 293.615,27.8064 290.948,27.4731 288.5,26.5C 291.388,27.0102 293.721,26.3435 295.5,24.5 Z"/></g>
<g><path style="opacity:1" fill="#f56152" d="M 43.5,53.5 C 41.5,53.5 39.5,53.5 37.5,53.5C 36.8783,52.3734 36.045,51.3734 35,50.5C 34.3333,42.8333 34.3333,35.1667 35,27.5C 39.5892,16.6782 43.5892,17.0115 47,28.5C 47.6667,35.5 47.6667,42.5 47,49.5C 45.6244,50.7051 44.4577,52.0384 43.5,53.5 Z"/></g>
<g><path style="opacity:1" fill="#f2f2f2" d="M 140.5,30.5 C 144.182,30.3347 147.848,30.5014 151.5,31C 155.5,34.3333 155.5,37.6667 151.5,41C 147.848,41.4986 144.182,41.6653 140.5,41.5C 140.5,37.8333 140.5,34.1667 140.5,30.5 Z"/></g>
<g><path style="opacity:1" fill="#f89a91" d="M 42.5,29.5 C 43.4849,33.6344 43.8182,37.9677 43.5,42.5C 41.5853,42.7845 39.9187,42.4511 38.5,41.5C 39.8333,41.5 41.1667,41.5 42.5,41.5C 42.5,37.5 42.5,33.5 42.5,29.5 Z"/></g>
<g><path style="opacity:1" fill="#f66656" d="M -0.5,-0.5 C 7.5,-0.5 15.5,-0.5 23.5,-0.5C 25.9564,3.25547 28.2897,3.25547 30.5,-0.5C 38.5,-0.5 46.5,-0.5 54.5,-0.5C 55.6473,13.0917 55.814,26.7584 55,40.5C 54,41.8333 53,41.8333 52,40.5C 51.5001,28.5046 51.3335,16.5046 51.5,4.5C 44.825,4.33375 38.1583,4.50042 31.5,5C 31,5.5 30.5,6 30,6.5C 29.8246,21.0746 29.3246,35.5746 28.5,50C 21.074,48.7716 13.4073,48.1049 5.5,48C 2.68648,46.5064 0.686482,44.3397 -0.5,41.5C -0.5,27.5 -0.5,13.5 -0.5,-0.5 Z"/></g>
<g><path style="opacity:1" fill="#fdf7f6" d="M 42.5,29.5 C 42.5,33.5 42.5,37.5 42.5,41.5C 41.1667,41.5 39.8333,41.5 38.5,41.5C 38.3343,37.1539 38.501,32.8206 39,28.5C 40.7441,25.8819 41.9108,26.2152 42.5,29.5 Z"/></g>
<g><path style="opacity:1" fill="#fefdfd" d="M 4.5,4.5 C 10.8421,4.33379 17.1754,4.50046 23.5,5C 24,5.5 24.5,6 25,6.5C 25.4998,15.8274 25.6665,25.1607 25.5,34.5C 19.1579,34.6662 12.8246,34.4995 6.5,34C 6,33.5 5.5,33 5,32.5C 4.50021,23.1726 4.33355,13.8393 4.5,4.5 Z"/></g>
<g><path style="opacity:1" fill="#fee1de" d="M 23.5,-0.5 C 25.8333,-0.5 28.1667,-0.5 30.5,-0.5C 28.2897,3.25547 25.9564,3.25547 23.5,-0.5 Z"/></g>
<g><path style="opacity:1" fill="#929292" d="M 112.5,33.5 C 110.833,33.5 109.167,33.5 107.5,33.5C 107.819,38.3633 107.486,43.03 106.5,47.5C 106.5,42.5 106.5,37.5 106.5,32.5C 108.735,32.2053 110.735,32.5386 112.5,33.5 Z"/></g>
<g><path style="opacity:1" fill="#fdfbfb" d="M 4.5,38.5 C 11.4122,39.4621 18.4122,39.7955 25.5,39.5C 25.5,40.8333 25.5,42.1667 25.5,43.5C 19.1579,43.6662 12.8246,43.4995 6.5,43C 4.96317,41.8904 4.2965,40.3904 4.5,38.5 Z"/></g>
<g><path style="opacity:1" fill="#fde9e7" d="M 38.5,46.5 C 39.9778,46.238 41.3112,46.5713 42.5,47.5C 40.5365,50.1939 39.2032,49.8606 38.5,46.5 Z"/></g>
<g><path style="opacity:1" fill="#737373" d="M 243.5,38.5 C 243.5,41.8333 243.5,45.1667 243.5,48.5C 240.615,48.8064 237.948,48.4731 235.5,47.5C 237.833,47.5 240.167,47.5 242.5,47.5C 242.19,44.2869 242.523,41.2869 243.5,38.5 Z"/></g>
<g><path style="opacity:1" fill="#808080" d="M 263.5,46.5 C 264.043,46.56 264.376,46.8933 264.5,47.5C 261.355,48.8032 258.355,48.8032 255.5,47.5C 258.385,47.8064 261.052,47.4731 263.5,46.5 Z"/></g>
</svg>
