<?xml version="1.0" encoding="UTF-8"?>
<!DOCTYPE svg PUBLIC "-//W3C//DTD SVG 1.1//EN" "http://www.w3.org/Graphics/SVG/1.1/DTD/svg11.dtd">
<svg xmlns="http://www.w3.org/2000/svg" version="1.1" width="300px" height="54px" style="shape-rendering:geometricPrecision; text-rendering:geometricPrecision; image-rendering:optimizeQuality; fill-rule:evenodd; clip-rule:evenodd" xmlns:xlink="http://www.w3.org/1999/xlink">
<g><path style="opacity:1" fill="#efefef" d="M 242.5,5.5 C 242.169,13.5277 242.502,21.5277 243.5,29.5C 244.107,29.3764 244.44,29.0431 244.5,28.5C 246.915,24.5781 249.915,21.0781 253.5,18C 256.833,17.3333 260.167,17.3333 263.5,18C 260.369,22.1328 256.869,25.9662 253,29.5C 252.308,30.4368 252.475,31.1034 253.5,31.5C 256.833,36.5 260.167,41.5 263.5,46.5C 260.713,47.4767 257.713,47.81 254.5,47.5C 251.858,43.8516 249.191,40.1849 246.5,36.5C 245.482,37.1925 244.482,37.8592 243.5,38.5C 242.523,41.2869 242.19,44.2869 242.5,47.5C 240.167,47.5 237.833,47.5 235.5,47.5C 235.5,33.5 235.5,19.5 235.5,5.5C 237.833,5.5 240.167,5.5 242.5,5.5 Z"/></g>
<g><path style="opacity:1" fill="#e8584a" d="M -0.5,-0.5 C 7.5,-0.5 15.5,-0.5 23.5,-0.5C 25.9564,3.25547 28.2897,3.25547 30.5,-0.5C 38.8333,-0.5 47.1667,-0.5 55.5,-0.5C 55.7697,13.4546 55.7697,27.4546 55.5,41.5C 53.901,41.7678 52.5676,41.4345 51.5,40.5C 51.8284,28.3217 51.4951,16.3217 50.5,4.5C 46.5,4.5 42.5,4.5 38.5,4.5C 36.2646,4.20528 34.2646,4.53862 32.5,5.5C 31.8333,5.5 31.5,5.83333 31.5,6.5C 31.1667,6.5 30.8333,6.5 30.5,6.5C 29.5041,20.6569 29.1707,34.9903 29.5,49.5C 29.0831,50.1239 28.4164,50.4573 27.5,50.5C 19.9676,48.8059 12.301,47.9726 4.5,48C 2.31305,46.975 0.646381,45.475 -0.5,43.5C -0.5,28.8333 -0.5,14.1667 -0.5,-0.5 Z M 14.5,4.5 C 16.8333,4.5 19.1667,4.5 21.5,4.5C 22.1217,5.62656 22.955,6.62656 24,7.5C 24.4998,16.1603 24.6664,24.8269 24.5,33.5C 19.1563,33.666 13.8229,33.4994 8.5,33C 7.9558,32.2828 7.28913,31.7828 6.5,31.5C 6.16667,28.8333 5.83333,28.8333 5.5,31.5C 5.16667,31.5 4.83333,31.5 4.5,31.5C 4.5,22.8333 4.5,14.1667 4.5,5.5C 5.23891,5.36899 5.90558,5.53566 6.5,6C 5.37917,8.9225 5.71251,9.08917 7.5,6.5C 9.96877,5.83195 12.3021,5.16528 14.5,4.5 Z M 41.5,41.5 C 39.8212,41.7148 38.8212,41.0481 38.5,39.5C 40.3678,38.3264 41.3678,38.9931 41.5,41.5 Z"/></g>
<g><path style="opacity:0.672" fill="#753a34" d="M 50.5,4.5 C 51.4951,16.3217 51.8284,28.3217 51.5,40.5C 50.8128,29.6283 50.1461,18.6283 49.5,7.5C 49.8627,6.81654 50.1961,6.14987 50.5,5.5C 50.5,5.16667 50.5,4.83333 50.5,4.5 Z"/></g>
<g><path style="opacity:0.093" fill="#2b2827" d="M 38.5,4.5 C 42.5,4.5 46.5,4.5 50.5,4.5C 50.5,4.83333 50.5,5.16667 50.5,5.5C 44.8819,6.24179 39.2152,6.74179 33.5,7C 32.1177,11.7055 31.4511,11.5388 31.5,6.5C 32.1667,6.5 32.5,6.16667 32.5,5.5C 34.7354,5.79472 36.7354,5.46138 38.5,4.5 Z"/></g>
<g><path style="opacity:0.025" fill="#302928" d="M 4.5,5.5 C 7.62482,4.52056 10.9581,4.18723 14.5,4.5C 12.3021,5.16528 9.96877,5.83195 7.5,6.5C 5.71251,9.08917 5.37917,8.9225 6.5,6C 5.90558,5.53566 5.23891,5.36899 4.5,5.5 Z"/></g>
<g><path style="opacity:0.071" fill="#48302c" d="M 23.5,-0.5 C 25.8333,-0.5 28.1667,-0.5 30.5,-0.5C 28.2897,3.25547 25.9564,3.25547 23.5,-0.5 Z"/></g>
<g><path style="opacity:0.68" fill="#a5a5a5" d="M 242.5,5.5 C 243.167,13.1667 243.833,20.8333 244.5,28.5C 244.44,29.0431 244.107,29.3764 243.5,29.5C 242.502,21.5277 242.169,13.5277 242.5,5.5 Z"/></g>
<g><path style="opacity:1" fill="#dddddd" d="M 65.5,41.5 C 65.5,39.8333 65.5,38.1667 65.5,36.5C 67.8333,36.5 70.1667,36.5 72.5,36.5C 73.2325,41.1508 75.8991,42.6508 80.5,41C 81.6667,40.5 82.5,39.6667 83,38.5C 83.4998,28.172 83.6665,17.8387 83.5,7.5C 86.5,7.5 89.5,7.5 92.5,7.5C 92.6665,18.1719 92.4998,28.8385 92,39.5C 89.2922,45.525 84.6255,48.8583 78,49.5C 72.0584,49.4541 67.8917,46.7874 65.5,41.5 Z"/></g>
<g><path style="opacity:1" fill="#eeeeee" d="M 99.5,7.5 C 105.842,7.33379 112.175,7.50046 118.5,8C 126.173,10.8421 129.006,16.3421 127,24.5C 125.507,27.3154 123.673,29.8154 121.5,32C 123.649,36.4626 125.649,40.9626 127.5,45.5C 125.365,47.369 122.698,48.0356 119.5,47.5C 117.167,42.8333 114.833,38.1667 112.5,33.5C 110.735,32.5386 108.735,32.2053 106.5,32.5C 106.5,37.5 106.5,42.5 106.5,47.5C 104.167,47.5 101.833,47.5 99.5,47.5C 99.5,34.1667 99.5,20.8333 99.5,7.5 Z M 114.5,14.5 C 118.332,16.2342 119.498,19.2342 118,23.5C 117.292,24.3805 116.458,25.0472 115.5,25.5C 112.833,25.5 110.167,25.5 107.5,25.5C 107.5,21.8333 107.5,18.1667 107.5,14.5C 109.833,14.5 112.167,14.5 114.5,14.5 Z"/></g>
<g><path style="opacity:1" fill="#ededed" d="M 133.5,7.5 C 139.842,7.33379 146.175,7.50046 152.5,8C 160.087,10.0025 162.92,14.8358 161,22.5C 160.167,24.6667 158.667,26.1667 156.5,27C 162.025,29.9188 163.858,34.4188 162,40.5C 160.078,44.5966 156.912,46.9299 152.5,47.5C 146.167,47.5 139.833,47.5 133.5,47.5C 133.5,34.1667 133.5,20.8333 133.5,7.5 Z M 148.5,14.5 C 152.254,15.8654 153.421,18.5321 152,22.5C 148.508,24.3011 145.008,24.9678 141.5,24.5C 141.5,21.1667 141.5,17.8333 141.5,14.5C 143.833,14.5 146.167,14.5 148.5,14.5 Z M 141.5,30.5 C 145.584,30.0431 149.417,30.7098 153,32.5C 154.334,36.6664 153.167,39.6664 149.5,41.5C 146.788,41.2625 144.288,41.2625 142,41.5C 141.501,37.8484 141.335,34.1817 141.5,30.5 Z"/></g>
<g><path style="opacity:0.19" fill="#3f2d2b" d="M 21.5,4.5 C 23.0174,4.51056 24.1841,5.17723 25,6.5C 25.4998,15.8274 25.6665,25.1607 25.5,34.5C 19.1579,34.6662 12.8246,34.4995 6.5,34C 5.24402,33.5831 4.57735,32.7498 4.5,31.5C 4.83333,31.5 5.16667,31.5 5.5,31.5C 5.83333,32.8333 6.16667,32.8333 6.5,31.5C 7.28913,31.7828 7.9558,32.2828 8.5,33C 13.8229,33.4994 19.1563,33.666 24.5,33.5C 24.6664,24.8269 24.4998,16.1603 24,7.5C 22.955,6.62656 22.1217,5.62656 21.5,4.5 Z"/></g>
<g><path style="opacity:0.376" fill="#6f6f6f" d="M 133.5,7.5 C 133.5,20.8333 133.5,34.1667 133.5,47.5C 139.833,47.5 146.167,47.5 152.5,47.5C 146.021,48.4907 139.354,48.824 132.5,48.5C 132.171,34.6565 132.504,20.9898 133.5,7.5 Z"/></g>
<g><path style="opacity:0.375" fill="#6e6e6e" d="M 148.5,14.5 C 146.167,14.5 143.833,14.5 141.5,14.5C 141.5,17.8333 141.5,21.1667 141.5,24.5C 140.518,21.0381 140.185,17.3714 140.5,13.5C 143.385,13.1936 146.052,13.5269 148.5,14.5 Z"/></g>
<g><path style="opacity:0.471" fill="#595959" d="M 114.5,14.5 C 112.167,14.5 109.833,14.5 107.5,14.5C 107.5,18.1667 107.5,21.8333 107.5,25.5C 110.167,25.5 112.833,25.5 115.5,25.5C 112.713,26.4767 109.713,26.81 106.5,26.5C 106.5,22.1667 106.5,17.8333 106.5,13.5C 109.385,13.1936 112.052,13.5269 114.5,14.5 Z"/></g>
<g><path style="opacity:1" fill="#e1e1e1" d="M 175.5,17.5 C 187.809,15.8107 194.475,21.144 195.5,33.5C 193.729,46.1237 186.729,50.9571 174.5,48C 165.329,41.1419 163.495,32.6419 169,22.5C 170.965,20.4497 173.132,18.783 175.5,17.5 Z M 177.5,40.5 C 179.831,40.1407 179.665,39.474 177,38.5C 176.601,38.7284 176.435,39.0618 176.5,39.5C 173.657,34.5295 173.991,29.6962 177.5,25C 183.85,23.676 186.85,26.3427 186.5,33C 186.712,39.9857 183.712,42.4857 177.5,40.5 Z"/></g>
<g><path style="opacity:1" fill="#e0e0e0" d="M 208.5,17.5 C 225.243,16.4131 231.743,24.0798 228,40.5C 223.473,48.202 216.973,50.702 208.5,48C 199.021,41.2131 197.187,32.7131 203,22.5C 204.73,20.5981 206.563,18.9314 208.5,17.5 Z M 211.5,40.5 C 210.034,39.653 209.2,38.3197 209,36.5C 207.849,32.1712 208.682,28.3379 211.5,25C 217.85,23.676 220.85,26.3427 220.5,33C 220.712,39.9857 217.712,42.4857 211.5,40.5 Z"/></g>
<g><path style="opacity:0.997" fill="#dedede" d="M 295.5,24.5 C 293.282,26.8441 290.615,27.1774 287.5,25.5C 283.837,22.555 280.504,22.8884 277.5,26.5C 278.09,27.7989 279.09,28.6322 280.5,29C 283.478,29.696 286.478,30.196 289.5,30.5C 296.044,33.2617 297.878,37.9284 295,44.5C 286.416,51.201 278.083,50.8676 270,43.5C 268.991,41.9751 268.491,40.3084 268.5,38.5C 271.127,37.9084 273.794,37.5751 276.5,37.5C 276.328,38.4916 276.662,39.1583 277.5,39.5C 278.425,41.8837 280.258,42.8837 283,42.5C 285.617,42.8727 287.45,41.8727 288.5,39.5C 282.464,37.5042 276.631,34.8375 271,31.5C 268.078,25.082 269.912,20.582 276.5,18C 280.833,17.3333 285.167,17.3333 289.5,18C 292.409,19.4055 294.409,21.5722 295.5,24.5 Z"/></g>
<g><path style="opacity:0.412" fill="#603631" d="M 38.5,20.5 C 38.573,22.0269 37.9063,23.0269 36.5,23.5C 36.427,21.9731 37.0937,20.9731 38.5,20.5 Z"/></g>
<g><path style="opacity:0.01" fill="#020202" d="M 281.5,25.5 C 281.897,24.475 282.563,24.3083 283.5,25C 282.906,25.4643 282.239,25.631 281.5,25.5 Z"/></g>
<g><path style="opacity:0.008" fill="#010201" d="M 279.5,25.5 C 280.525,25.8966 280.692,26.5632 280,27.5C 279.536,26.9056 279.369,26.2389 279.5,25.5 Z"/></g>
<g><path style="opacity:0.627" fill="#888888" d="M 295.5,24.5 C 296.404,25.209 296.737,26.209 296.5,27.5C 292.988,28.0545 289.988,27.3878 287.5,25.5C 290.615,27.1774 293.282,26.8441 295.5,24.5 Z"/></g>
<g><path style="opacity:0.01" fill="#020202" d="M 281.5,28.5 C 282.251,27.4265 283.251,27.2599 284.5,28C 283.552,28.4828 282.552,28.6495 281.5,28.5 Z"/></g>
<g><path style="opacity:0.11" fill="#432e2b" d="M 30.5,6.5 C 30.3336,14.1739 30.5003,21.8406 31,29.5C 31.3333,28.1667 31.6667,26.8333 32,25.5C 33.1455,26.6843 34.3121,26.6843 35.5,25.5C 34.5632,33.445 34.2299,41.445 34.5,49.5C 32.2136,44.5394 31.047,39.206 31,33.5C 30.8267,39.0158 30.3267,44.3491 29.5,49.5C 29.1707,34.9903 29.5041,20.6569 30.5,6.5 Z"/></g>
<g><path style="opacity:1" fill="#e15749" d="M 44.5,53.5 C 41.8333,53.5 39.1667,53.5 36.5,53.5C 35.3995,52.3951 34.7329,51.0618 34.5,49.5C 34.2299,41.445 34.5632,33.445 35.5,25.5C 35.3284,24.5084 35.6618,23.8417 36.5,23.5C 37.9063,23.0269 38.573,22.0269 38.5,20.5C 39.2039,18.6558 40.5372,18.1558 42.5,19C 44.1274,21.7542 45.6274,24.5875 47,27.5C 47.6667,35.1667 47.6667,42.8333 47,50.5C 45.955,51.3734 45.1217,52.3734 44.5,53.5 Z M 41.5,41.5 C 39.8212,41.7148 38.8212,41.0481 38.5,39.5C 40.3678,38.3264 41.3678,38.9931 41.5,41.5 Z M 38.5,46.5 C 39.675,46.281 40.675,46.6143 41.5,47.5C 39.9483,48.7979 38.9483,48.4646 38.5,46.5 Z"/></g>
<g><path style="opacity:0.194" fill="#2c2827" d="M 41.5,41.5 C 41.3678,38.9931 40.3678,38.3264 38.5,39.5C 38.3347,35.8183 38.5014,32.1516 39,28.5C 40,25.8333 41,25.8333 42,28.5C 42.8136,33.0204 42.647,37.3537 41.5,41.5 Z"/></g>
<g><path style="opacity:0.008" fill="#010201" d="M 289.5,30.5 C 289.897,29.475 290.563,29.3083 291.5,30C 290.906,30.4643 290.239,30.631 289.5,30.5 Z"/></g>
<g><path style="opacity:0.004" fill="#000100" d="M 123.5,30.5 C 124.833,31.1667 124.833,31.1667 123.5,30.5 Z"/></g>
<g><path style="opacity:0.004" fill="#030403" d="M 253.5,30.5 C 254.833,31.1667 254.833,31.1667 253.5,30.5 Z"/></g>
<g><path style="opacity:0.008" fill="#010201" d="M 292.5,30.5 C 293.833,31.1667 293.833,31.1667 292.5,30.5 Z"/></g>
<g><path style="opacity:0.008" fill="#010201" d="M 123.5,31.5 C 122.833,32.1667 122.833,32.1667 123.5,31.5 Z"/></g>
<g><path style="opacity:0.02" fill="#070807" d="M 108.5,34.5 C 109.833,35.1667 109.833,35.1667 108.5,34.5 Z"/></g>
<g><path style="opacity:0.36" fill="#676767" d="M 72.5,36.5 C 70.1667,36.5 67.8333,36.5 65.5,36.5C 65.5,38.1667 65.5,39.8333 65.5,41.5C 64.7656,40.1225 64.0989,38.6225 63.5,37C 66.4918,35.2459 69.4918,35.0793 72.5,36.5 Z"/></g>
<g><path style="opacity:0.404" fill="#686868" d="M 99.5,7.5 C 99.5,20.8333 99.5,34.1667 99.5,47.5C 101.833,47.5 104.167,47.5 106.5,47.5C 106.5,42.5 106.5,37.5 106.5,32.5C 108.735,32.2053 110.735,32.5386 112.5,33.5C 110.833,33.5 109.167,33.5 107.5,33.5C 107.5,38.5 107.5,43.5 107.5,48.5C 104.5,48.5 101.5,48.5 98.5,48.5C 98.171,34.6565 98.5043,20.9898 99.5,7.5 Z"/></g>
<g><path style="opacity:0.004" fill="#000100" d="M 273.5,35.5 C 274.833,36.1667 274.833,36.1667 273.5,35.5 Z"/></g>
<g><path style="opacity:0.01" fill="#020202" d="M 276.5,37.5 C 276.897,36.475 277.563,36.3083 278.5,37C 277.906,37.4643 277.239,37.631 276.5,37.5 Z"/></g>
<g><path style="opacity:0.009" fill="#020202" d="M 279.5,38.5 C 280.251,37.4265 281.251,37.2599 282.5,38C 281.552,38.4828 280.552,38.6495 279.5,38.5 Z"/></g>
<g><path style="opacity:0.004" fill="#000100" d="M 278.5,39.5 C 277.833,38.1667 277.833,38.1667 278.5,39.5 Z"/></g>
<g><path style="opacity:0.014" fill="#030303" d="M 284.5,39.5 C 284.897,38.475 285.563,38.3083 286.5,39C 285.906,39.4643 285.239,39.631 284.5,39.5 Z"/></g>
<g><path style="opacity:0.008" fill="#040504" d="M 75.5,39.5 C 76.8333,40.1667 76.8333,40.1667 75.5,39.5 Z"/></g>
<g><path style="opacity:0.024" fill="#040504" d="M 278.5,39.5 C 279.833,40.1667 279.833,40.1667 278.5,39.5 Z"/></g>
<g><path style="opacity:0.212" fill="#2a2727" d="M 4.5,39.5 C 10.2512,39.3855 16.2512,39.3855 22.5,39.5C 23.1667,40.8333 23.8333,40.8333 24.5,39.5C 25.4345,40.5676 25.7678,41.901 25.5,43.5C 19.1579,43.6662 12.8246,43.4995 6.5,43C 5.61947,42.2917 4.9528,41.4584 4.5,40.5C 5.83333,40.1667 5.83333,39.8333 4.5,39.5 Z"/></g>
<g><path style="opacity:0.012" fill="#030303" d="M 280.5,41.5 C 281.946,40.3871 283.613,40.2204 285.5,41C 283.866,41.4935 282.199,41.6602 280.5,41.5 Z"/></g>
<g><path style="opacity:0.999" fill="#929292" d="M 141.5,30.5 C 141.335,34.1817 141.501,37.8484 142,41.5C 144.288,41.2625 146.788,41.2625 149.5,41.5C 146.713,42.4767 143.713,42.81 140.5,42.5C 140.183,38.2984 140.517,34.2984 141.5,30.5 Z"/></g>
<g><path style="opacity:0.012" fill="#030403" d="M 129.5,46.5 C 131.154,42.627 131.654,42.9603 131,47.5C 130.617,46.944 130.117,46.6107 129.5,46.5 Z"/></g>
<g><path style="opacity:0.46" fill="#6f6f6f" d="M 127.5,45.5 C 128.167,45.8333 128.833,46.1667 129.5,46.5C 128.306,47.7773 126.64,48.4439 124.5,48.5C 122.631,48.4932 120.964,48.1599 119.5,47.5C 122.698,48.0356 125.365,47.369 127.5,45.5 Z"/></g>
<g><path style="opacity:0.417" fill="#898989" d="M 243.5,38.5 C 243.5,41.8333 243.5,45.1667 243.5,48.5C 240.615,48.8064 237.948,48.4731 235.5,47.5C 237.833,47.5 240.167,47.5 242.5,47.5C 242.19,44.2869 242.523,41.2869 243.5,38.5 Z"/></g>
<g><path style="opacity:0.458" fill="#7a7a7a" d="M 263.5,46.5 C 264.043,46.56 264.376,46.8933 264.5,47.5C 261.02,48.8056 257.687,48.8056 254.5,47.5C 257.713,47.81 260.713,47.4767 263.5,46.5 Z"/></g>
</svg>
